<svg width="18" height="11" viewBox="0 0 18 11" fill="none" xmlns="http://www.w3.org/2000/svg">
<path fill-rule="evenodd" clip-rule="evenodd" d="M10.8216 9.86451C11.0184 9.86451 11.1898 9.95656 11.1898 10.2121V10.639C11.1898 10.885 11.0184 10.9881 10.8216 10.9881C10.6248 10.9881 10.4534 10.885 10.4534 10.639V10.2137C10.4534 9.95656 10.6248 9.86451 10.8216 9.86451ZM9.96465 9.86451C10.1614 9.86451 10.3328 9.95656 10.3328 10.2121V10.639C10.3328 10.885 10.1614 10.9881 9.96465 10.9881C9.76786 10.9881 9.59646 10.885 9.59646 10.639V10.2137C9.59646 9.95656 9.76786 9.86451 9.96465 9.86451ZM9.2981 9.87879L9.06957 10.3295C9.1029 10.3136 9.13623 10.3089 9.1759 10.3089C9.34412 10.3089 9.47585 10.4469 9.47585 10.6358C9.47585 10.8786 9.31238 10.9881 9.10925 10.9881C8.90452 10.9881 8.73947 10.8802 8.73947 10.6374C8.73947 10.5517 8.77756 10.4501 8.83946 10.3247L9.06005 9.87879H9.2981ZM6.40181 9.86451C6.58908 9.86451 6.75889 9.97084 6.75889 10.1645C6.75889 10.2676 6.69858 10.3612 6.61129 10.4057C6.70017 10.4454 6.77476 10.5453 6.77476 10.6691C6.77476 10.8738 6.60495 10.9881 6.40181 10.9881C6.19867 10.9881 6.02886 10.8738 6.02886 10.6691C6.02886 10.5453 6.10663 10.4454 6.19232 10.4057C6.10504 10.3612 6.04473 10.2676 6.04473 10.1645C6.04473 9.97084 6.21613 9.86451 6.40181 9.86451ZM1.052 0.50116C1.13965 0.50116 1.2107 0.572212 1.2107 0.659861V10.8167C1.2107 10.9044 1.13965 10.9754 1.052 10.9754H0.734602C0.646954 10.9754 0.575901 10.9044 0.575901 10.8167V0.659861C0.575901 0.572212 0.646954 0.50116 0.734602 0.50116H1.052ZM3.59122 0.50116C3.67887 0.50116 3.74992 0.572212 3.74992 0.659861V10.8167C3.74992 10.9044 3.67887 10.9754 3.59122 10.9754H2.00421C1.91656 10.9754 1.84551 10.9044 1.84551 10.8167V0.659861C1.84551 0.572212 1.91656 0.50116 2.00421 0.50116H3.59122ZM15.6525 0.50116C15.7401 0.50116 15.8112 0.572212 15.8112 0.659861V10.8167C15.8112 10.9044 15.7401 10.9754 15.6525 10.9754H14.7003C14.6126 10.9754 14.5416 10.9044 14.5416 10.8167V0.659861C14.5416 0.572212 14.6126 0.50116 14.7003 0.50116H15.6525ZM16.9221 0.50116C17.0097 0.50116 17.0808 0.572212 17.0808 0.659861V10.8167C17.0808 10.9044 17.0097 10.9754 16.9221 10.9754H16.6047C16.517 10.9754 16.446 10.9044 16.446 10.8167V0.659861C16.446 0.572212 16.517 0.50116 16.6047 0.50116H16.9221ZM5.50356 9.87879L5.44802 10.1787H5.60037L5.65592 9.87879H5.85905L5.80351 10.1787H5.92888V10.3565H5.77018L5.74479 10.4914H5.87016V10.6691H5.71146L5.65433 10.9738H5.45278L5.50832 10.6691H5.35597L5.30043 10.9738H5.0957L5.15283 10.6691H5.01953V10.4914H5.18616L5.21155 10.3565H5.07825V10.1787H5.24488L5.30043 9.87879H5.50356ZM7.46193 9.87879L7.12072 10.6294H7.33021V10.3501H7.55239V10.6294H7.65237V10.8183H7.55239V10.9738H7.33021V10.8183H6.84459V10.6644L7.21912 9.87879H7.46193ZM8.18402 9.87879C8.43159 9.87879 8.60458 10.0058 8.60458 10.3549V10.4977C8.60458 10.8453 8.43159 10.9738 8.18402 10.9738H7.7952V9.87879H8.18402ZM11.7246 9.87879C11.9833 9.87879 12.1246 9.97084 12.1246 10.166C12.1246 10.2787 12.0674 10.3565 11.9801 10.3993C12.0928 10.4406 12.1595 10.5231 12.1595 10.6596C12.1595 10.8294 12.0484 10.9738 11.7596 10.9738H11.358V9.87879H11.7246ZM12.5419 9.87879V10.3517L12.8879 9.87879H13.1514L12.8165 10.3216L13.2164 10.9738H12.9514L12.6721 10.512L12.5419 10.6834V10.9738H12.3198V9.87879H12.5419ZM6.40181 10.4961C6.32722 10.4961 6.25104 10.5533 6.25104 10.6485C6.25104 10.7326 6.31452 10.8024 6.40181 10.8024C6.48592 10.8024 6.55416 10.7326 6.55416 10.6485C6.55416 10.5533 6.47481 10.4961 6.40181 10.4961ZM9.10925 10.4914C9.01085 10.4914 8.96165 10.5549 8.96165 10.6453C8.96165 10.7374 9.01085 10.8008 9.10925 10.8008C9.20447 10.8008 9.25366 10.7374 9.25366 10.6453C9.25366 10.5549 9.20447 10.4914 9.10925 10.4914ZM9.96465 10.0518C9.86466 10.0518 9.81705 10.1153 9.81705 10.2327V10.6199C9.81705 10.7374 9.86466 10.8008 9.96465 10.8008C10.063 10.8008 10.1106 10.7374 10.1106 10.6199V10.2327C10.1106 10.1153 10.063 10.0518 9.96465 10.0518ZM10.8216 10.0518C10.7216 10.0518 10.674 10.1153 10.674 10.2327V10.6199C10.674 10.7374 10.7216 10.8008 10.8216 10.8008C10.92 10.8008 10.9676 10.7374 10.9676 10.6199V10.2327C10.9676 10.1153 10.92 10.0518 10.8216 10.0518ZM8.18402 10.0676H8.01738V10.7866H8.18402C8.33161 10.7866 8.3824 10.6866 8.3824 10.4977V10.3549C8.3824 10.166 8.33161 10.0676 8.18402 10.0676ZM11.7199 10.4993H11.5802V10.7866H11.7405C11.8738 10.7866 11.9373 10.7358 11.9373 10.6421C11.9373 10.539 11.8691 10.4993 11.7199 10.4993ZM5.56704 10.3565H5.41469L5.3893 10.4914H5.54165L5.56704 10.3565ZM6.40181 10.0518C6.32563 10.0518 6.26533 10.1121 6.26533 10.1867C6.26533 10.2628 6.32563 10.3247 6.40181 10.3247C6.4764 10.3247 6.53829 10.2628 6.53829 10.1867C6.53829 10.1121 6.4764 10.0518 6.40181 10.0518ZM11.704 10.0661H11.5802V10.312H11.7278C11.85 10.312 11.9024 10.2644 11.9024 10.1867C11.9024 10.1105 11.8643 10.0661 11.704 10.0661ZM12.4785 0.50116C12.5661 0.50116 12.6372 0.572212 12.6372 0.659861V8.91231C12.6372 8.99995 12.5661 9.07101 12.4785 9.07101H10.2567C10.169 9.07101 10.098 8.99995 10.098 8.91231V0.659861C10.098 0.572212 10.169 0.50116 10.2567 0.50116H12.4785ZM8.03484 0.50116C8.12249 0.50116 8.19354 0.572212 8.19354 0.659861V8.91231C8.19354 8.99995 8.12249 9.07101 8.03484 9.07101H7.08264C6.99499 9.07101 6.92394 8.99995 6.92394 8.91231V0.659861C6.92394 0.572212 6.99499 0.50116 7.08264 0.50116H8.03484ZM13.7481 0.50116C13.8357 0.50116 13.9068 0.572212 13.9068 0.659861V8.91231C13.9068 8.99995 13.8357 9.07101 13.7481 9.07101H13.4307C13.343 9.07101 13.272 8.99995 13.272 8.91231V0.659861C13.272 0.572212 13.343 0.50116 13.4307 0.50116H13.7481ZM6.13043 0.50116C6.21808 0.50116 6.28913 0.572212 6.28913 0.659861V8.91231C6.28913 8.99995 6.21808 9.07101 6.13043 9.07101H5.81303C5.72538 9.07101 5.65433 8.99995 5.65433 8.91231V0.659861C5.65433 0.572212 5.72538 0.50116 5.81303 0.50116H6.13043ZM4.86082 0.50116C4.94847 0.50116 5.01953 0.572212 5.01953 0.659861V8.91231C5.01953 8.99995 4.94847 9.07101 4.86082 9.07101H4.54342C4.45577 9.07101 4.38472 8.99995 4.38472 8.91231V0.659861C4.38472 0.572212 4.45577 0.50116 4.54342 0.50116H4.86082ZM9.30445 0.50116C9.3921 0.50116 9.46315 0.572212 9.46315 0.659861V8.91231C9.46315 8.99995 9.3921 9.07101 9.30445 9.07101H8.98705C8.8994 9.07101 8.82835 8.99995 8.82835 8.91231V0.659861C8.82835 0.572212 8.8994 0.50116 8.98705 0.50116H9.30445Z" fill="white"/>
</svg>
