<svg xmlns="http://www.w3.org/2000/svg" viewBox="0 0 30 30"><defs><style>.cls-1{fill:#FFFFFF;}</style></defs><g id="Layer_2" data-name="Layer 2"><path class="cls-1" d="M15,11.49a3.43,3.43,0,1,0,3.43,3.43A3.43,3.43,0,0,0,15,11.49Zm0,5.59a2.25,2.25,0,1,1,2.24-2.24A2.24,2.24,0,0,1,15,17.08Z"/><path class="cls-1" d="M22.86,11.41a3.43,3.43,0,1,0,3.43,3.43A3.43,3.43,0,0,0,22.86,11.41Zm0,5.59a2.25,2.25,0,1,1,2.24-2.24A2.24,2.24,0,0,1,22.86,17Z"/><path class="cls-1" d="M7.14,11.57A3.43,3.43,0,1,0,10.57,15,3.43,3.43,0,0,0,7.14,11.57Zm0,5.59a2.24,2.24,0,1,1,2.24-2.24A2.24,2.24,0,0,1,7.14,17.16Z"/><circle class="cls-1" cx="15" cy="14.84" r="1.65"/></g></svg>