<svg width="100" height="142" viewBox="0 0 100 142" fill="none" xmlns="http://www.w3.org/2000/svg">
<path fill-rule="evenodd" clip-rule="evenodd" d="M7.67409 50.1074C9.39961 52.4158 12.7354 52.9097 15.2381 51.4839C17.7967 50.0218 18.8274 46.8441 17.609 44.1537L14.237 36.6687C12.8935 33.6952 9.34692 32.4504 6.44581 33.9323L5.34266 34.581C2.18798 36.1946 1.2429 40.268 3.36687 43.1098L7.68067 50.1074H7.67409ZM10.1109 28.1827C10.1274 24.8568 10.18 19.542 10.2887 15.2084C9.18886 14.7704 7.92765 14.6618 6.86401 15.1656C5.59951 15.7583 4.83554 17.1084 4.54576 18.475C4.08474 20.6649 4.67748 23.0128 5.97162 24.8371C7.0122 26.2992 8.47428 27.4319 10.1109 28.1794V28.1827ZM11.7343 53.8285V55.442C12.3798 56.1105 12.9363 56.9008 13.3611 57.7866L13.394 57.8525L15.0504 61.7382V53.3674C14.2107 53.6902 13.3183 53.8614 12.416 53.8614C12.1855 53.8614 11.9583 53.8515 11.7343 53.8285V53.8285ZM36.0596 7.2361H49.2611C49.788 7.2361 50.2194 7.63125 50.2194 8.12191C50.2194 8.60598 49.7913 9.00443 49.2611 9.00443H36.0596C35.5327 9.00443 35.098 8.60927 35.098 8.12191C35.098 7.63455 35.5327 7.2361 36.0596 7.2361ZM15.0504 34.8379V12.8704H70.0563V38.4733C71.0376 39.1912 71.6633 40.2713 72.1407 41.0945L72.2198 41.2262C72.5655 41.8223 72.9113 42.415 73.2669 43.0044V29.928C73.2669 26.5461 73.1978 18.0074 73.0101 12.6596C72.8224 7.30854 71.3965 5.07919 69.098 3.41295C66.8061 1.74999 64.5142 1.27251 61.1356 1.0881C60.971 1.07822 52.8505 0.982727 42.5006 0.982727C32.1508 0.982727 24.027 1.08152 23.8624 1.0881C20.4871 1.27251 18.1919 1.7467 15.8999 3.41295C13.6047 5.07919 12.1789 7.30854 11.9912 12.6596C11.8002 18.0074 11.7343 26.5461 11.7343 29.9247V32.1969C13.0647 32.7303 14.2238 33.6458 15.0537 34.8379" fill="white"/>
<path fill-rule="evenodd" clip-rule="evenodd" d="M99.9898 118.022C99.8877 116.676 99.4596 115.605 99.4695 115.276C99.4893 114.68 96.0843 88.3395 95.7451 86.0345C95.7451 86.0345 90.5653 70.2611 87.5917 62.8519L87.5884 62.8387L87.5818 62.8321C86.5182 61.0868 86.3305 60.6423 83.8674 58.2417C78.0388 53.9213 74.5383 48.6196 70.926 42.4025C70.1291 41.0392 69.2136 39.3268 67.1522 39.6825C65.0743 40.0381 64.205 41.7571 63.7143 43.532C59.7002 58.0474 68.5122 66.6158 69.78 68.8418C70.9819 70.9559 72.9248 73.1128 73.9357 75.3356C74.3506 76.251 74.6635 76.9162 74.9138 77.4793V106.016C74.9138 110.57 74.8084 114.018 73.4615 116.916C72.6153 118.727 70.4649 121.961 65.5288 123.196C61.0964 124.305 53.7695 124.845 43.1299 124.845C40.8578 124.845 38.7404 124.822 36.7679 124.773L52.8837 133.565C52.8837 133.565 59.3906 138.969 62.677 140.951C72.1279 146.648 100.698 127.391 99.9865 118.022" fill="white"/>
<path fill-rule="evenodd" clip-rule="evenodd" d="M34.9144 116.934V115.952C34.9144 114.8 35.8529 113.861 37.0021 113.861H48.0468C49.1927 113.861 50.1345 114.8 50.1345 115.952V116.934C50.1345 118.086 49.1927 119.028 48.0468 119.028H37.0021C35.8529 119.028 34.9144 118.086 34.9144 116.934V116.934ZM64.673 121.6C68.5456 120.628 70.8276 118.248 71.9308 115.873C73.1558 113.239 73.2875 110.005 73.2875 105.408V77.9909L73.0339 77.4377L72.5499 76.374C72.023 75.2215 71.1569 74.0031 70.3205 72.8242L70.0768 72.4784V110.279H15.0742V96.3262C14.0863 97.0276 12.9502 97.4458 11.7549 97.5446V105.408C11.7549 110.005 11.8866 113.242 13.1116 115.873C14.2147 118.244 16.4935 120.628 20.366 121.6C24.3933 122.607 31.2954 123.217 42.5212 123.217C53.7469 123.217 60.649 122.607 64.673 121.6V121.6ZM5.65298 72.597C7.38838 75.4553 11.8833 76.374 14.2279 74.8691C16.4342 73.4564 17.0763 70.2129 15.7097 67.3677L11.9195 58.4997C10.4508 55.4373 7.20397 53.9521 4.67167 55.1738L3.43021 55.6908C0.68387 57.0179 -1.1141 61.1078 0.789245 64.246L5.65298 72.597ZM11.7549 78.5836C12.1171 78.9821 12.4365 79.4069 12.6967 79.8514L15.0709 83.9973V76.2588C14.1489 76.8449 13.0029 77.1709 11.7549 77.2071V78.5836V78.5836ZM15.5978 88.1827L11.7944 81.1785C10.1973 78.4651 5.68591 76.3773 3.25239 78.3729L2.00106 79.4299C-0.139375 81.1851 0.371037 85.7656 2.04716 87.9686L6.93065 93.9124C8.63312 96.1517 11.9821 96.6028 14.2378 94.9267C16.3453 93.3559 16.9314 90.4482 15.5978 88.1827" fill="white"/>
</svg>
