<?xml version="1.0" encoding="UTF-8"?>
<svg width="12px" height="16px" viewBox="0 0 12 16" version="1.1" xmlns="http://www.w3.org/2000/svg" xmlns:xlink="http://www.w3.org/1999/xlink">
    <!-- Generator: Sketch 51.2 (57519) - http://www.bohemiancoding.com/sketch -->
    <title>Untitled</title>
    <desc>Created with Sketch.</desc>
    <defs></defs>
    <g id="Page-1" stroke="none" stroke-width="1" fill="none" fill-rule="evenodd">
        <g id="tablet" fill="#FFFFFF" fill-rule="nonzero">
            <path d="M10,1 C10.5522847,1 11,1.44771525 11,2 L11,14 C11,14.5522847 10.5522847,15 10,15 L2,15 C1.44771525,15 1,14.5522847 1,14 L1,2 C1,1.44771525 1.44771525,1 2,1 L10,1 Z M2,0 C0.8954305,-6.76353751e-17 0,0.8954305 0,2 L0,14 C0,15.1045695 0.8954305,16 2,16 L10,16 C11.1045695,16 12,15.1045695 12,14 L12,2 C12,0.8954305 11.1045695,6.76353751e-17 10,0 L2,0 Z" id="Shape"></path>
            <path d="M6,14 C6.55228475,14 7,13.5522847 7,13 C7,12.4477153 6.55228475,12 6,12 C5.44771525,12 5,12.4477153 5,13 C5,13.5522847 5.44771525,14 6,14 Z" id="Shape"></path>
        </g>
    </g>
</svg>