<svg width="100" height="141" viewBox="0 0 100 141" fill="none" xmlns="http://www.w3.org/2000/svg">
<path fill-rule="evenodd" clip-rule="evenodd" d="M50 0C59.3942 0 68.5984 2.6469 76.5575 7.63732C99.9501 22.3046 107.023 53.1583 92.3561 76.5509L53.2129 138.98C52.1003 140.754 49.7599 141.29 47.9855 140.178C47.5008 139.874 47.0911 139.464 46.7871 138.98L7.64395 76.5509C-7.02337 53.1583 0.0498647 22.3046 23.4425 7.63732C31.4016 2.6469 40.6058 0 50 0ZM50 83.4284C68.8397 83.4284 84.1298 68.1383 84.1298 49.2986C84.1298 30.459 68.8397 15.1688 50 15.1688C31.1603 15.1688 15.8702 30.459 15.8702 49.2986C15.8702 68.1383 31.1603 83.4284 50 83.4284Z" fill="white"/>
</svg>
