<svg width="100" height="92" viewBox="0 0 100 92" fill="none" xmlns="http://www.w3.org/2000/svg">
<mask id="path-1-inside-1_401_144" fill="white">
<path fill-rule="evenodd" clip-rule="evenodd" d="M97.2308 6.52123C95.8711 1.75527 90.9068 -1.01366 86.1409 0.346018L40.5208 13.3338H99.1711L97.2308 6.52123ZM14.331 21.8036H91.6194C92.6479 21.8036 93.4817 22.6375 93.4817 23.666V73.0188C93.4817 74.0474 92.6479 74.8812 91.6194 74.8812H14.331C13.3024 74.8812 12.4686 74.0474 12.4686 73.0188V23.666C12.4686 22.6374 13.3024 21.8036 14.331 21.8036ZM5.96344 23.1931C6.20864 18.7846 9.86116 15.2853 14.331 15.2853H91.6194C96.2479 15.2853 100 19.0375 100 23.666V73.0188C100 77.6473 96.2479 81.3995 91.6194 81.3995H14.9309C16.5648 83.096 18.8598 84.1506 21.4003 84.1506H50.4069L25.9114 91.1261C21.1454 92.4858 16.1811 89.7168 14.8215 84.9509L13.8059 81.3833C9.42197 81.1123 5.95032 77.471 5.95032 73.0188V53.789L0.346536 34.1045C-0.959216 29.5275 1.5361 24.7677 5.96344 23.1931ZM14.3309 59.4641C17.0377 50.651 29.139 36.9026 60.6659 57.5734C66.0246 61.0869 88.2243 72.9564 91.5681 47.4784V73.0373H14.3309V59.4641ZM77.6841 27.5163L89.9152 46.6894C88.2624 54.2925 86.5434 59.3833 79.6676 61.2345C73.3587 62.9331 61.0943 55.3922 56.561 52.6048C56.1535 52.3543 55.8085 52.1421 55.5359 51.9785C52.2302 49.9951 44.9576 46.3588 44.9576 46.3588L55.5359 33.4666L65.453 42.0614L77.6841 27.5163ZM25.1233 39.0861C28.4095 39.0861 31.0735 36.422 31.0735 33.1358C31.0735 29.8495 28.4095 27.1855 25.1233 27.1855C21.837 27.1855 19.173 29.8495 19.173 33.1358C19.173 36.422 21.837 39.0861 25.1233 39.0861Z"/>
</mask>
<path fill-rule="evenodd" clip-rule="evenodd" d="M97.2308 6.52123C95.8711 1.75527 90.9068 -1.01366 86.1409 0.346018L40.5208 13.3338H99.1711L97.2308 6.52123ZM14.331 21.8036H91.6194C92.6479 21.8036 93.4817 22.6375 93.4817 23.666V73.0188C93.4817 74.0474 92.6479 74.8812 91.6194 74.8812H14.331C13.3024 74.8812 12.4686 74.0474 12.4686 73.0188V23.666C12.4686 22.6374 13.3024 21.8036 14.331 21.8036ZM5.96344 23.1931C6.20864 18.7846 9.86116 15.2853 14.331 15.2853H91.6194C96.2479 15.2853 100 19.0375 100 23.666V73.0188C100 77.6473 96.2479 81.3995 91.6194 81.3995H14.9309C16.5648 83.096 18.8598 84.1506 21.4003 84.1506H50.4069L25.9114 91.1261C21.1454 92.4858 16.1811 89.7168 14.8215 84.9509L13.8059 81.3833C9.42197 81.1123 5.95032 77.471 5.95032 73.0188V53.789L0.346536 34.1045C-0.959216 29.5275 1.5361 24.7677 5.96344 23.1931ZM14.3309 59.4641C17.0377 50.651 29.139 36.9026 60.6659 57.5734C66.0246 61.0869 88.2243 72.9564 91.5681 47.4784V73.0373H14.3309V59.4641ZM77.6841 27.5163L89.9152 46.6894C88.2624 54.2925 86.5434 59.3833 79.6676 61.2345C73.3587 62.9331 61.0943 55.3922 56.561 52.6048C56.1535 52.3543 55.8085 52.1421 55.5359 51.9785C52.2302 49.9951 44.9576 46.3588 44.9576 46.3588L55.5359 33.4666L65.453 42.0614L77.6841 27.5163ZM25.1233 39.0861C28.4095 39.0861 31.0735 36.422 31.0735 33.1358C31.0735 29.8495 28.4095 27.1855 25.1233 27.1855C21.837 27.1855 19.173 29.8495 19.173 33.1358C19.173 36.422 21.837 39.0861 25.1233 39.0861Z" fill="white"/>
<path d="M86.1409 0.346018L86.1646 0.429437L86.1647 0.429424L86.1409 0.346018ZM97.2308 6.52123L97.3142 6.49747L97.3142 6.49744L97.2308 6.52123ZM40.5208 13.3338L40.497 13.2504L40.5208 13.4205V13.3338ZM99.1711 13.3338V13.4205H99.286L99.2545 13.31L99.1711 13.3338ZM5.96344 23.1931L5.9925 23.2749L6.04683 23.2555L6.05004 23.198L5.96344 23.1931ZM14.9309 81.3995V81.3128H14.727L14.8684 81.4597L14.9309 81.3995ZM50.4069 84.1506L50.4306 84.2341L50.4069 84.0639V84.1506ZM25.9114 91.1261L25.8876 91.0427L25.8876 91.0427L25.9114 91.1261ZM14.8215 84.9509L14.738 84.9746L14.7381 84.9747L14.8215 84.9509ZM13.8059 81.3833L13.8893 81.3596L13.8725 81.3005L13.8112 81.2967L13.8059 81.3833ZM5.95032 53.789H6.03705V53.7769L6.03374 53.7653L5.95032 53.789ZM0.346536 34.1045L0.429955 34.0807L0.429942 34.0807L0.346536 34.1045ZM60.6659 57.5734L60.7135 57.5009L60.7135 57.5009L60.6659 57.5734ZM14.3309 59.4641L14.248 59.4387L14.2441 59.4511V59.4641H14.3309ZM91.5681 47.4784H91.6548L91.4821 47.4671L91.5681 47.4784ZM91.5681 73.0373V73.124H91.6548V73.0373H91.5681ZM14.3309 73.0373H14.2441V73.124H14.3309V73.0373ZM89.9152 46.6894L90 46.7078L90.0076 46.6729L89.9884 46.6428L89.9152 46.6894ZM77.6841 27.5163L77.7572 27.4697L77.6937 27.3701L77.6177 27.4605L77.6841 27.5163ZM79.6676 61.2345L79.645 61.1508L79.645 61.1508L79.6676 61.2345ZM56.561 52.6048L56.5155 52.6787L56.5155 52.6787L56.561 52.6048ZM55.5359 51.9785L55.4912 52.0529L55.4912 52.0529L55.5359 51.9785ZM44.9576 46.3588L44.8906 46.3038L44.8216 46.3878L44.9188 46.4364L44.9576 46.3588ZM55.5359 33.4666L55.5927 33.401L55.5253 33.3427L55.4688 33.4116L55.5359 33.4666ZM65.453 42.0614L65.3962 42.127L65.4627 42.1846L65.5194 42.1172L65.453 42.0614ZM86.1647 0.429424C90.8844 -0.917079 95.8008 1.825 97.1474 6.54503L97.3142 6.49744C95.9414 1.68554 90.9292 -1.11025 86.1171 0.262612L86.1647 0.429424ZM40.5445 13.4172L86.1646 0.429437L86.1171 0.262599L40.497 13.2504L40.5445 13.4172ZM99.1711 13.2471H40.5208V13.4205H99.1711V13.2471ZM97.1473 6.54499L99.0877 13.3576L99.2545 13.31L97.3142 6.49747L97.1473 6.54499ZM91.6194 21.7169H14.331V21.8904H91.6194V21.7169ZM93.5685 23.666C93.5685 22.5896 92.6958 21.7169 91.6194 21.7169V21.8904C92.6 21.8904 93.395 22.6854 93.395 23.666H93.5685ZM93.5685 73.0188V23.666H93.395V73.0188H93.5685ZM91.6194 74.9679C92.6958 74.9679 93.5685 74.0953 93.5685 73.0188H93.395C93.395 73.9995 92.6 74.7945 91.6194 74.7945V74.9679ZM14.331 74.9679H91.6194V74.7945H14.331V74.9679ZM12.3819 73.0188C12.3819 74.0953 13.2545 74.9679 14.331 74.9679V74.7945C13.3503 74.7945 12.5554 73.9995 12.5554 73.0188H12.3819ZM12.3819 23.666V73.0188H12.5554V23.666H12.3819ZM14.331 21.7169C13.2545 21.7169 12.3819 22.5895 12.3819 23.666H12.5554C12.5554 22.6854 13.3503 21.8904 14.331 21.8904V21.7169ZM14.331 15.1986C9.81487 15.1986 6.12458 18.7341 5.87684 23.1883L6.05004 23.198C6.29269 18.8351 9.90745 15.3721 14.331 15.3721V15.1986ZM91.6194 15.1986H14.331V15.3721H91.6194V15.1986ZM100.087 23.666C100.087 18.9896 96.2958 15.1986 91.6194 15.1986V15.3721C96.2 15.3721 99.9133 19.0854 99.9133 23.666H100.087ZM100.087 73.0188V23.666H99.9133V73.0188H100.087ZM91.6194 81.4862C96.2958 81.4862 100.087 77.6952 100.087 73.0188H99.9133C99.9133 77.5994 96.2 81.3128 91.6194 81.3128V81.4862ZM14.9309 81.4862H91.6194V81.3128H14.9309V81.4862ZM21.4003 84.0639C18.8843 84.0639 16.6116 83.0196 14.9934 81.3393L14.8684 81.4597C16.518 83.1725 18.8353 84.2374 21.4003 84.2374V84.0639ZM50.4069 84.0639H21.4003V84.2374H50.4069V84.0639ZM25.9351 91.2095L50.4306 84.2341L50.3831 84.0672L25.8876 91.0427L25.9351 91.2095ZM14.7381 84.9747C16.1108 89.7866 21.123 92.5823 25.9352 91.2095L25.8876 91.0427C21.1678 92.3892 16.2514 89.6471 14.9049 84.9271L14.7381 84.9747ZM13.7224 81.4071L14.738 84.9746L14.9049 84.9271L13.8893 81.3596L13.7224 81.4071ZM5.86359 73.0188C5.86359 77.5171 9.37117 81.196 13.8005 81.4699L13.8112 81.2967C9.47278 81.0285 6.03705 77.4249 6.03705 73.0188H5.86359ZM5.86359 53.789V73.0188H6.03705V53.789H5.86359ZM0.263116 34.1282L5.8669 53.8128L6.03374 53.7653L0.429955 34.0807L0.263116 34.1282ZM5.93437 23.1114C1.46424 24.7013 -1.05526 29.507 0.26313 34.1283L0.429942 34.0807C-0.863167 29.5481 1.60797 24.8342 5.9925 23.2749L5.93437 23.1114ZM60.7135 57.5009C44.9409 47.1595 34.0076 45.4143 26.6684 47.3785C19.3272 49.3432 15.6075 55.0122 14.248 59.4387L14.4138 59.4896C15.7611 55.1029 19.4454 49.4911 26.7133 47.5461C33.9832 45.6004 44.864 47.3165 60.6184 57.646L60.7135 57.5009ZM91.4821 47.4671C90.6477 53.8244 88.639 57.8377 86.0239 60.2344C83.4099 62.6302 80.1785 63.4214 76.8755 63.311C70.2627 63.0901 63.3899 59.2557 60.7135 57.5009L60.6184 57.646C63.3006 59.4046 70.207 63.2618 76.8697 63.4844C80.2044 63.5958 83.4848 62.7969 86.1411 60.3623C88.7964 57.9287 90.8165 53.8713 91.6541 47.4896L91.4821 47.4671ZM91.6548 73.0373V47.4784H91.4813V73.0373H91.6548ZM14.3309 73.124H91.5681V72.9505H14.3309V73.124ZM14.2441 59.4641V73.0373H14.4176V59.4641H14.2441ZM89.9884 46.6428L77.7572 27.4697L77.611 27.563L89.8421 46.7361L89.9884 46.6428ZM79.6901 61.3183C83.149 60.3871 85.3164 58.6381 86.8241 56.1641C88.3284 53.6956 89.1737 50.5087 90 46.7078L89.8305 46.671C89.0039 50.4733 88.1633 53.6333 86.676 56.0738C85.192 58.5088 83.062 60.2308 79.645 61.1508L79.6901 61.3183ZM56.5155 52.6787C58.782 54.0722 62.9856 56.6569 67.4124 58.6808C69.6258 59.6927 71.8975 60.5655 74.0127 61.079C76.1262 61.592 78.0924 61.7484 79.6901 61.3183L79.645 61.1508C78.0883 61.5699 76.1556 61.4206 74.0536 60.9104C71.9531 60.4005 69.6925 59.5324 67.4845 58.523C63.0686 56.5042 58.8733 53.9247 56.6064 52.5309L56.5155 52.6787ZM55.4912 52.0529C55.7634 52.2162 56.1079 52.428 56.5155 52.6787L56.6064 52.5309C56.1991 52.2805 55.8536 52.068 55.5805 51.9042L55.4912 52.0529ZM44.9576 46.3588C44.9188 46.4364 44.9189 46.4364 44.9189 46.4365C44.919 46.4365 44.9191 46.4365 44.9192 46.4366C44.9194 46.4367 44.9197 46.4369 44.9201 46.4371C44.921 46.4375 44.9223 46.4382 44.9241 46.4391C44.9276 46.4408 44.9328 46.4434 44.9398 46.4469C44.9536 46.4538 44.9742 46.4641 45.0012 46.4777C45.0553 46.5048 45.135 46.5448 45.2376 46.5964C45.4428 46.6997 45.7397 46.8495 46.1064 47.0354C46.8397 47.4072 47.8518 47.9236 48.9672 48.5019C51.1987 49.659 53.841 51.0628 55.4912 52.0529L55.5805 51.9042C53.925 50.9109 51.2782 49.5048 49.047 48.3479C47.9311 47.7693 46.9185 47.2526 46.1848 46.8806C45.818 46.6947 45.5209 46.5448 45.3156 46.4415C45.2129 46.3898 45.1331 46.3498 45.079 46.3226C45.0519 46.3091 45.0313 46.2987 45.0174 46.2918C45.0105 46.2883 45.0052 46.2857 45.0017 46.2839C45 46.283 44.9986 46.2824 44.9977 46.2819C44.9973 46.2817 44.997 46.2815 44.9967 46.2814C44.9966 46.2814 44.9966 46.2813 44.9965 46.2813C44.9964 46.2813 44.9964 46.2813 44.9576 46.3588ZM55.4688 33.4116L44.8906 46.3038L45.0247 46.4139L55.6029 33.5216L55.4688 33.4116ZM65.5098 41.9959L55.5927 33.401L55.4791 33.5321L65.3962 42.127L65.5098 41.9959ZM77.6177 27.4605L65.3866 42.0056L65.5194 42.1172L77.7505 27.5721L77.6177 27.4605ZM30.9868 33.1358C30.9868 36.3741 28.3616 38.9993 25.1233 38.9993V39.1728C28.4574 39.1728 31.1603 36.4699 31.1603 33.1358H30.9868ZM25.1233 27.2723C28.3616 27.2723 30.9868 29.8974 30.9868 33.1358H31.1603C31.1603 29.8016 28.4574 27.0988 25.1233 27.0988V27.2723ZM19.2597 33.1358C19.2597 29.8974 21.8849 27.2723 25.1233 27.2723V27.0988C21.7891 27.0988 19.0862 29.8016 19.0862 33.1358H19.2597ZM25.1233 38.9993C21.8849 38.9993 19.2597 36.3741 19.2597 33.1358H19.0862C19.0862 36.4699 21.7891 39.1728 25.1233 39.1728V38.9993Z" fill="white" mask="url(#path-1-inside-1_401_144)"/>
</svg>
