<svg width="283" height="42" viewBox="0 0 283 42" fill="none" xmlns="http://www.w3.org/2000/svg">
<path fill-rule="evenodd" clip-rule="evenodd" d="M9.10167 25.7745C9.10167 25.7745 9.81834 21.4072 13.115 19.9038C15.8383 18.6151 19.8517 19.8322 22.79 21.4072C26.8034 23.5551 29.24 26.4188 33.97 26.4188C35.9767 26.4188 37.9834 25.6313 39.4167 24.271V34.7954C39.4167 36.5136 38.7 38.2319 37.4817 39.449C36.1917 40.5945 34.5434 41.3105 32.7517 41.3105H6.59334C4.87334 41.3105 3.15334 40.5945 1.935 39.3774C0.716667 38.1603 0 36.4421 0 34.7238V8.52027C0 6.80201 0.716667 5.08374 1.935 3.86664C3.15334 2.64954 4.87334 1.93359 6.59334 1.93359H32.8234C34.5434 1.93359 36.2634 2.64954 37.4817 3.86664C38.7 5.08374 39.4167 6.80201 39.4167 8.52027V19.1162L35.475 16.0377C35.475 16.0377 35.1167 21.1925 31.3184 22.5528C28.0933 23.6983 23.5783 21.0493 21.8583 19.9038C16.6983 16.5388 12.7567 15.7513 9.96167 15.7513C6.665 15.6797 3.72667 17.7559 2.65167 20.9061L9.10167 25.7745Z" fill="#65D007"/>
<path d="M41.8337 1.82285V41.2628H50.5061V1.82285H41.8337Z" fill="white"/>
<path d="M61.5955 20.3828V8.56189H68.3345C69.3288 8.56189 70.2863 8.63554 71.2069 8.78284C72.1276 8.93014 72.9377 9.22475 73.6374 9.66665C74.3371 10.0717 74.8895 10.6609 75.2945 11.4343C75.7364 12.2076 75.9574 13.2203 75.9574 14.4724C75.9574 15.7244 75.7364 16.7371 75.2945 17.5105C74.8895 18.2838 74.3371 18.8914 73.6374 19.3333C72.9377 19.7384 72.1276 20.0146 71.2069 20.1619C70.2863 20.3092 69.3288 20.3828 68.3345 20.3828H61.5955ZM52.9231 1.82285V41.2628H61.5955V27.1219H70.7098C73.1771 27.1219 75.2761 26.772 77.0069 26.0724C78.7377 25.3359 80.1371 24.3784 81.205 23.2C82.3098 22.0216 83.1015 20.6774 83.5802 19.1676C84.0958 17.6209 84.3536 16.0559 84.3536 14.4724C84.3536 12.852 84.0958 11.287 83.5802 9.77713C83.1015 8.26729 82.3098 6.92316 81.205 5.74475C80.1371 4.56634 78.7377 3.62729 77.0069 2.92761C75.2761 2.1911 73.1771 1.82285 70.7098 1.82285H52.9231Z" fill="white"/>
<path d="M114.735 15.2934H123.119C122.861 13.1028 122.236 11.1595 121.243 9.46358C120.251 7.76762 118.982 6.35432 117.438 5.22368C115.93 4.0577 114.202 3.17439 112.253 2.57374C110.341 1.97309 108.3 1.67276 106.131 1.67276C103.115 1.67276 100.394 2.18508 97.9674 3.20972C95.5773 4.23437 93.5548 5.64767 91.9002 7.44963C90.2455 9.25158 88.9769 11.3715 88.0944 13.8095C87.2119 16.2121 86.7706 18.8267 86.7706 21.6533C86.7706 24.4092 87.2119 26.9885 88.0944 29.3911C88.9769 31.7584 90.2455 33.8254 91.9002 35.592C93.5548 37.3586 95.5773 38.7542 97.9674 39.7789C100.394 40.7682 103.115 41.2628 106.131 41.2628C108.557 41.2628 110.782 40.9095 112.804 40.2029C114.827 39.4962 116.592 38.4716 118.099 37.1289C119.607 35.7863 120.821 34.161 121.74 32.2531C122.659 30.3451 123.229 28.2075 123.45 25.8402H115.066C114.735 28.3841 113.816 30.4334 112.308 31.9881C110.837 33.5427 108.778 34.32 106.131 34.32C104.182 34.32 102.527 33.9667 101.166 33.26C99.8059 32.518 98.7028 31.5464 97.857 30.3451C97.0113 29.1438 96.3862 27.8012 95.9817 26.3172C95.614 24.7979 95.4302 23.2433 95.4302 21.6533C95.4302 19.9927 95.614 18.385 95.9817 16.8304C96.3862 15.2758 97.0113 13.8978 97.857 12.6965C98.7028 11.4599 99.8059 10.4882 101.166 9.78157C102.527 9.03959 104.182 8.6686 106.131 8.6686C107.197 8.6686 108.208 8.84526 109.164 9.19858C110.157 9.51658 111.039 9.9759 111.812 10.5766C112.584 11.1772 113.227 11.8839 113.742 12.6965C114.257 13.4738 114.588 14.3395 114.735 15.2934Z" fill="white"/>
<path d="M125.867 1.82285V41.2628H133.987V13.5886H134.097L143.764 41.2628H150.448L160.114 13.3124H160.225V41.2628H168.345V1.82285H156.137L147.41 28.9447H147.299L138.074 1.82285H125.867Z" fill="white"/>
<path d="M178.606 26.2933C178.606 25.1517 178.716 24.0285 178.937 22.9238C179.158 21.819 179.526 20.8432 180.042 19.9962C180.594 19.1492 181.312 18.4679 182.196 17.9524C183.08 17.4 184.185 17.1238 185.51 17.1238C186.836 17.1238 187.941 17.4 188.825 17.9524C189.745 18.4679 190.463 19.1492 190.979 19.9962C191.531 20.8432 191.918 21.819 192.139 22.9238C192.36 24.0285 192.47 25.1517 192.47 26.2933C192.47 27.4349 192.36 28.5581 192.139 29.6628C191.918 30.7308 191.531 31.7066 190.979 32.5905C190.463 33.4374 189.745 34.1187 188.825 34.6343C187.941 35.1498 186.836 35.4076 185.51 35.4076C184.185 35.4076 183.08 35.1498 182.196 34.6343C181.312 34.1187 180.594 33.4374 180.042 32.5905C179.526 31.7066 179.158 30.7308 178.937 29.6628C178.716 28.5581 178.606 27.4349 178.606 26.2933ZM170.762 26.2933C170.762 28.5765 171.112 30.6387 171.811 32.48C172.511 34.3212 173.505 35.9047 174.794 37.2304C176.083 38.5193 177.63 39.5136 179.434 40.2133C181.239 40.913 183.264 41.2628 185.51 41.2628C187.757 41.2628 189.782 40.913 191.587 40.2133C193.428 39.5136 194.993 38.5193 196.282 37.2304C197.571 35.9047 198.565 34.3212 199.265 32.48C199.964 30.6387 200.314 28.5765 200.314 26.2933C200.314 24.0101 199.964 21.9479 199.265 20.1066C198.565 18.2286 197.571 16.6451 196.282 15.3562C194.993 14.0305 193.428 13.0178 191.587 12.3181C189.782 11.5816 187.757 11.2133 185.51 11.2133C183.264 11.2133 181.239 11.5816 179.434 12.3181C177.63 13.0178 176.083 14.0305 174.794 15.3562C173.505 16.6451 172.511 18.2286 171.811 20.1066C171.112 21.9479 170.762 24.0101 170.762 26.2933Z" fill="white"/>
<path d="M223.666 26.2933C223.666 27.4717 223.538 28.6133 223.28 29.7181C223.022 30.8228 222.617 31.7987 222.065 32.6457C221.512 33.4927 220.813 34.174 219.966 34.6895C219.155 35.1682 218.161 35.4076 216.983 35.4076C215.841 35.4076 214.847 35.1682 214 34.6895C213.153 34.174 212.453 33.4927 211.901 32.6457C211.348 31.7987 210.943 30.8228 210.686 29.7181C210.428 28.6133 210.299 27.4717 210.299 26.2933C210.299 25.0781 210.428 23.9181 210.686 22.8133C210.943 21.7086 211.348 20.7327 211.901 19.8857C212.453 19.0387 213.153 18.3759 214 17.8971C214.847 17.3816 215.841 17.1238 216.983 17.1238C218.161 17.1238 219.155 17.3816 219.966 17.8971C220.813 18.3759 221.512 19.0387 222.065 19.8857C222.617 20.7327 223.022 21.7086 223.28 22.8133C223.538 23.9181 223.666 25.0781 223.666 26.2933ZM202.731 1.10477V40.7698H210.188V36.899H210.299C211.146 38.4825 212.398 39.6057 214.055 40.2686C215.712 40.9314 217.59 41.2628 219.689 41.2628C221.126 41.2628 222.543 40.9682 223.943 40.379C225.342 39.7898 226.594 38.8876 227.699 37.6724C228.84 36.4571 229.761 34.9105 230.461 33.0324C231.16 31.1175 231.51 28.8527 231.51 26.2381C231.51 23.6235 231.16 21.3771 230.461 19.499C229.761 17.5841 228.84 16.019 227.699 14.8038C226.594 13.5886 225.342 12.6863 223.943 12.0971C222.543 11.5079 221.126 11.2133 219.689 11.2133C217.922 11.2133 216.209 11.5632 214.552 12.2629C212.932 12.9257 211.643 13.9936 210.686 15.4667H210.575V1.10477H202.731Z" fill="white"/>
<path d="M241.771 8.2857V1.82285H233.927V8.2857H241.771ZM233.927 12.7047V41.2628H241.771V12.7047H233.927Z" fill="white"/>
<path d="M244.188 1.82285V41.2628H252.032V1.82285H244.188Z" fill="white"/>
<path d="M275.053 23.2H262.293C262.33 22.6476 262.44 22.0216 262.624 21.3219C262.845 20.6222 263.195 19.9593 263.674 19.3333C264.189 18.7073 264.852 18.1917 265.662 17.7866C266.509 17.3447 267.559 17.1238 268.811 17.1238C270.726 17.1238 272.144 17.6393 273.064 18.6705C274.022 19.7016 274.685 21.2114 275.053 23.2ZM262.293 28.1714H282.897C283.044 25.9619 282.86 23.8444 282.344 21.819C281.829 19.7936 280.982 17.9892 279.803 16.4057C278.662 14.8222 277.189 13.5701 275.384 12.6495C273.58 11.692 271.462 11.2133 269.032 11.2133C266.859 11.2133 264.871 11.6 263.066 12.3733C261.299 13.1466 259.77 14.2146 258.481 15.5771C257.193 16.9028 256.198 18.4863 255.499 20.3276C254.799 22.1689 254.449 24.1574 254.449 26.2933C254.449 28.5028 254.78 30.5282 255.443 32.3695C256.143 34.2108 257.119 35.7943 258.371 37.12C259.623 38.4457 261.151 39.4768 262.956 40.2133C264.76 40.913 266.786 41.2628 269.032 41.2628C272.273 41.2628 275.034 40.5263 277.318 39.0533C279.601 37.5803 281.295 35.1314 282.399 31.7066H275.495C275.237 32.5905 274.537 33.4374 273.396 34.2476C272.254 35.0209 270.892 35.4076 269.308 35.4076C267.099 35.4076 265.405 34.8368 264.226 33.6952C263.048 32.5536 262.403 30.7124 262.293 28.1714Z" fill="white"/>
</svg>
